<?xml version="1.0" standalone="no"?>
<!DOCTYPE svg PUBLIC "-//W3C//DTD SVG 20010904//EN"
 "http://www.w3.org/TR/2001/REC-SVG-20010904/DTD/svg10.dtd">
<svg version="1.0" xmlns="http://www.w3.org/2000/svg"
 width="700.000000pt" height="700.000000pt" viewBox="0 0 700.000000 700.000000"
 preserveAspectRatio="xMidYMid meet">
<metadata>
Created by potrace 1.11, written by Peter Selinger 2001-2013
</metadata>
<g transform="translate(0.000000,700.000000) scale(0.100000,-0.100000)"
fill="#000000" stroke="none">
<path d="M3278 6995 c-2 -1 -39 -5 -83 -9 -121 -9 -302 -35 -390 -56 -22 -5
-83 -19 -135 -31 -150 -34 -394 -114 -507 -165 -28 -13 -54 -24 -58 -24 -13 0
-305 -149 -380 -195 -551 -333 -977 -769 -1280 -1311 -198 -353 -345 -774
-399 -1139 -2 -16 -8 -50 -12 -75 -8 -50 -10 -69 -21 -190 -15 -162 -8 -605
11 -705 2 -11 7 -45 10 -75 7 -62 12 -94 26 -165 6 -27 12 -59 14 -70 31 -163
115 -435 191 -620 43 -104 149 -319 208 -420 39 -68 184 -288 212 -323 7 -9
44 -56 82 -103 137 -173 353 -395 492 -505 13 -10 31 -26 40 -34 47 -44 401
-290 417 -290 2 0 23 -12 46 -26 60 -38 299 -156 398 -197 267 -109 607 -202
851 -233 30 -3 65 -8 79 -10 182 -26 651 -25 840 2 347 50 638 128 930 249 65
27 283 134 350 172 108 62 220 133 325 207 256 182 597 516 770 756 22 30 42
57 45 60 12 12 121 182 173 270 194 334 330 691 406 1067 16 81 33 175 36 208
4 33 9 69 11 80 30 153 24 697 -11 900 -2 17 -7 48 -10 70 -8 53 -64 313 -74
345 -5 14 -17 52 -26 85 -57 202 -197 536 -293 700 -189 325 -360 548 -602
788 -157 155 -226 215 -370 322 -115 85 -266 185 -280 185 -4 0 -10 4 -12 8
-9 22 -309 174 -488 247 -225 92 -530 177 -755 211 -27 4 -52 8 -55 9 -3 1
-41 5 -85 10 -44 4 -89 10 -100 12 -24 4 -532 12 -537 8z"/>
</g>
</svg>
